<?xml version="1.0" encoding="utf-8"?>
<!-- Generator: Adobe Illustrator 25.0.0, SVG Export Plug-In . SVG Version: 6.00 Build 0)  -->
<svg version="1.1" id="图层_1" xmlns="http://www.w3.org/2000/svg" xmlns:xlink="http://www.w3.org/1999/xlink" x="0px" y="0px"
	 viewBox="0 0 4096 4096" style="enable-background:new 0 0 4096 4096;" xml:space="preserve">
<style type="text/css">
	.st0{fill:#FDFDFD;}
	.st1{fill:#D8EFF6;}
	.st2{fill:#0D0C0A;}
	.st3{fill:#3B3C3C;}
	.st4{fill:#68C3DE;}
	.st5{fill:#F1D29E;}
	.st6{fill:#F0D29E;}
	.st7{fill:#68C5E0;}
	.st8{fill:#4A8C9F;}
	.st9{fill:#B39C76;}
	.st10{fill:#9D8A67;}
	.st11{fill:#9F8A67;}
	.st12{fill:#9D8966;}
	.st13{fill:#8F7C5E;}
	.st14{fill:#77674E;}
	.st15{fill:#FFFFFF;}
	.st16{fill:#020202;}
	.st17{fill:#69C5E0;}
	.st18{fill:#F3D29E;}
	.st19{fill:#FBFBFB;}
	.st20{fill:#FDFEFE;}
	.st21{fill:#DEDEDE;}
	.st22{fill:#E8E8E8;}
</style>
<g>
	<g>
		<path class="st0" d="M626.34,3614.96c-119.61,0-239.22,0-358.83,0c0-1380.65,0-2761.31,0-4141.96c1187.04,0,2374.09,0,3561.13,0
			c0,1380.65,0,2761.3,0,4141.96c-118.32,0-236.63,0-354.95,0c-0.72-0.87-1.32-1.81-1.81-2.83c-0.89-2.75-0.99-5.58-0.9-8.44
			c-0.67-13.99,1.56-28.07-1.53-41.98c-0.96-16.11-2.67-32.13-2.9-48.32c-0.7-50.33-3.04-100.62-5.22-150.91
			c-1.38-31.92-2.8-63.84-4.58-95.73c-2.22-39.62-4.26-79.25-6.84-118.85c-1.74-26.72-3.19-53.47-4.56-80.22
			c-1.72-33.51-2.98-67.04-5.37-100.52c-1.15-16.1-1.35-32.28-1.78-48.36c-0.69-25.49-2.84-50.93-2.57-76.46
			c0.41-37.78-1.58-75.53-2.36-113.29c-1.05-50.98-1.98-101.99-3.9-152.93c-1.68-44.59-0.64-89.12-1.44-133.67
			c-0.09-5.16-0.22-10.34,0.55-15.46c4.3-11.79,4.26-24.08,3.84-36.37c-0.45-13.39,4.92-23.67,15.51-31.65
			c43.2-32.52,74.96-74.5,99.89-121.96c26.04-49.56,42.8-102.48,55.72-156.74c6.45-27.11,13.91-53.85,27.92-78.26
			c22.4-30.24,40.15-62.88,46.05-100.4c8.3-52.8-20.46-99.74-75.78-108.76c-24.43-3.98-48.25,0.86-71.36,9.27
			c-17.5,6.37-33.2,15.82-47.75,27.33c-3.79,3-7.46,6.21-11.74,8.57c-5.05,2.14-10.17,4.13-15.38,5.79
			c-9.02,2.87-12.27,0.45-13.56-9.09c-2.25-16.66-2.35-33.41-1.97-50.15c0.29-12.67-1.38-25.01-4.79-37.16
			c-1.11-4.44-0.98-8.98-0.97-13.5c0.07-87.12-8.88-173.46-22.09-259.46c-4.86-31.65-10.68-63.11-16.99-94.49
			c-0.64-3.17-1.25-6.34-1.49-9.58c-1.44-19.62,2.29-26.04,20.62-33.45c68.88-27.85,117.43-77.6,151.8-142.06
			c25.26-47.37,39.39-98.08,43.11-151.83c4.84-70-7.75-136.1-44.58-196.18c-42.08-68.64-103.92-109.23-183.84-119.02
			c-80.03-9.8-153.17,10.31-218.49,57.97c-5.48,4-10.78,8.26-16.35,12.15c-16.98,11.88-30.34,11.46-46.88-1.43
			c-10.46-8.15-20.25-17.08-30.7-25.25c-51.8-40.5-110.38-68.05-171.63-90.67c-101.58-37.52-206.76-61.81-312.15-85.41
			c-58.99-13.21-117.93-26.67-178.03-34.01c-35.9-4.38-71.83-8.4-107.93-10.85c-41.55-2.83-83.13-4.64-124.75-6.2
			c-23.91-0.9-47.78-0.86-71.67-1.37c-55.23-1.19-110.47-3.25-165.71-1.79c-44.18,1.17-88.33,3.33-132.43,7.02
			c-59.62,4.98-118.86,12.82-177.85,22.38c-52.65,8.54-104.91,19.32-156.84,31.5c-80.9,18.97-161.35,39.72-240.11,66.39
			c-67.96,23.01-132.85,52.43-191.08,95.13c-14.35,10.52-28.21,21.63-41.33,33.65c-17.05,15.61-25.52,16.16-44.15,2.23
			c-38.92-29.08-80.4-53.38-128.01-64.91c-87.34-21.15-168.42-9.38-238.86,49.9c-36.64,30.84-61.27,70.56-78.32,115.04
			c-16.53,43.13-24.49,87.81-21.69,133.99c2.78,45.84,12.98,90.11,30.85,132.54c16.88,40.07,39.82,76.31,70.37,107.17
			c26.39,26.66,57.08,47.5,92.52,60.72c1.21,0.45,2.45,0.83,3.67,1.25c21.2,7.31,23.32,10.83,19.84,32.56
			c-8.53,53.31-19.11,106.29-26.23,159.83c-4.99,37.47-8.33,75.09-11.03,112.81c-4.5,62.83-6.18,125.74-8.09,188.69
			c-1.91,63.05-0.31,126.04-1.43,189.05c-0.11,6.14,1.82,12.19,0.63,18.35c-2.63,13.63-9.88,16.67-20.92,8.61
			c-34.75-25.39-70.12-49.72-109.04-68.52c-37.88-18.3-77.38-29.23-119.76-27.02c-44.04,2.3-75.62,24.45-95.16,63.22
			c-13.81,27.39-5.02,53.66,7.94,78.83c10.79,20.95,25.84,38.04,44.23,53.19c37.26,30.69,66.54,68.56,91.38,109.82
			c17.19,28.56,34.75,56.82,56.77,82.02c32.97,37.72,70.19,70.5,112.7,97.13c2.47,1.54,4.91,3.13,7.44,4.56
			c25.31,14.28,35.89,35.8,35.77,64.92c-0.21,53-2.23,105.96-2.72,158.96c-0.43,46.14-2.13,92.33-3.69,138.47
			c-1.24,36.78-2.37,73.58-3.9,110.35c-1.83,43.86-3.66,87.73-5.8,131.58c-2.36,48.35-4.86,96.71-7.76,145.04
			c-2.64,44.14-5.3,88.27-7.77,132.42c-2.44,43.52-3.95,87.07-5.94,130.59c-2.32,50.76-0.59,101.47-1.54,152.19
			c-0.06,3.23,0.16,6.49-0.91,9.63C627.65,3613.22,627.04,3614.12,626.34,3614.96z"/>
		<path class="st1" d="M3473.31,3612.37c0.13,0.86,0.26,1.72,0.39,2.59c-949.12,0-1898.24,0-2847.35,0
			c0.15-0.89,0.29-1.78,0.44-2.68c9.58-4.24,19.65-1.66,29.5-2.09c4.52-0.4,9.04-0.37,13.56-0.37
			c918.19,0.01,1836.39,0.01,2754.58,0.02c3.87,0,7.76-0.22,11.62,0.3C3448.47,3610.81,3461.13,3607.61,3473.31,3612.37z"/>
		<path d="M3473.31,3612.37c-1.57,0.29-3.13,0.83-4.7,0.84c-9.63,0.07-19.26,0.03-28.88-0.02c-0.95,0-1.9-0.25-2.85-0.38
			c-3.22-3.4-2.97-7.71-3.02-11.89c-0.12-11.32-0.34-22.64,0.01-33.95c1.22-39.45-1.35-78.85-2.44-118.23
			c-1.5-53.89-4.57-107.75-7.58-161.59c-3.1-55.45-6.69-110.88-9.7-166.34c-2.88-53.21-6.04-106.38-7.79-159.65
			c-1.4-42.61-2.6-85.23-3.86-127.84c-1.7-57.81-2.46-115.63-4.11-173.42c-0.88-31.02-0.02-62.07-1.71-93.02
			c-1.24-22.62-2.06-45.21-1.54-67.81c0.54-23.89,2.85-47.71,3.75-71.59c0.08-2.26,0.02-4.53,0-6.79
			c-0.24-24.99-8.7-32.42-33.26-26.89c-41.87,9.43-74.24-7.65-103.33-35.08c-14.21-26.16-23.09-53.73-24.04-83.87
			c-3.2-102.18,33.79-190.75,91.43-272.41c22.34-31.65,47.16-61.6,65.51-95.98c1.07-2.01,2.04-4.02,2.67-6.2
			c4.09-11.05,5.74-22.74,6.3-34.24c1.4-28.71,1.85-57.49-0.32-86.21c-0.47-6.14-0.71-12.25-0.81-18.38
			c-2.02-115.55-12.55-230.3-34.85-343.74c-15.31-77.86-38.94-153.46-66.25-227.93c-19.71-53.73-39.98-107.25-63.87-159.28
			c-25.2-54.9-56.02-106.29-97.05-151.14c-45.88-50.16-100.15-89.3-159.1-122.4c-62.12-34.88-128.66-58.49-196.81-78.36
			c-126.87-36.99-255.82-63.89-386.84-80.76c-49-6.31-98.16-11.28-147.49-14.53c-39.94-2.64-79.92-4.16-119.89-6.05
			c-49.78-2.35-99.53-2.03-149.23-1c-45.76,0.95-91.56,3.36-137.28,6.83c-65.1,4.94-129.94,11.86-194.52,21.32
			c-116.92,17.13-231.92,42.97-345.33,76.11c-63.12,18.45-124.86,40.32-183.22,70.97c-102.65,53.92-182.79,130.65-238.15,233.12
			c-33.63,62.25-59.21,127.79-82.98,194.16c-17.21,48.07-35.48,95.8-49.02,145.12c-20.42,74.35-34.05,149.98-42.71,226.56
			c-4.68,41.4-8.46,82.9-10.9,124.46c-1.93,32.85-2.89,65.82-4.81,98.66c-5.23,89.47-2.39,178.98-3.67,268.45
			c-0.35,24.62,8.44,43.42,27.6,58.79c64.77,51.96,111.53,117.06,140.44,195c11.29,30.43,15.53,61.39,7.21,93.13
			c-12.99,49.54-51.36,77.63-99.3,84.09c-12.52,1.69-24.93,1.84-37.62,0.47c-19.69-2.11-25.05,2.89-26.21,22.75
			c-0.92,15.81-0.51,31.68-0.23,47.51c0.84,48.48-1.88,96.91-2.46,145.37c-0.54,44.85-2.1,89.74-3.7,134.58
			c-1.27,35.49-2.22,70.99-3.86,106.46c-2,43.21-3.61,86.44-5.8,129.63c-2.46,48.35-4.91,96.7-7.79,145.03
			c-2.45,41.23-4.99,82.47-7.7,123.69c-2.85,43.18-4.62,86.37-5.89,129.62c-1.39,47.12-3.3,94.23-3.62,141.38
			c-0.03,4.89-0.22,9.75-4.19,13.42c-8.5,0.09-16.99,0.22-25.49,0.23c-1.22,0-2.43-0.57-3.65-0.87c0.07-1.61,0.23-3.22,0.19-4.83
			c-1.12-44.61-0.97-89.23-0.1-133.84c0.39-20.04,1.1-40.07,1.94-60.1c1.13-26.81,2.45-53.6,3.84-80.4
			c1.16-22.27,2.52-44.54,3.83-66.8c1.29-21.94,2.64-43.88,3.92-65.83c1.3-22.27,2.59-44.53,3.78-66.8
			c1.39-25.82,2.71-51.65,3.97-77.48c1.34-27.44,2.66-54.89,3.83-82.34c1.39-32.62,2.65-65.24,3.91-97.87
			c0.76-19.7,1.47-39.41,2.12-59.12c1.05-31.99,2.22-63.97,2.99-95.96c1.13-46.86,2.01-93.73,2.9-140.6
			c0.5-26.18,0.84-52.37,1.21-78.55c0.1-7.12-0.17-14.19-1.72-21.21c-2.14-9.72-6.43-18.21-13.27-25.43
			c-4.02-4.25-8.55-7.89-13.42-11.1c-3.5-2.31-7.12-4.46-10.67-6.69c-38.53-24.16-73.67-52.45-104.49-86
			c-20.85-22.69-39.18-47.24-55.02-73.66c-11.3-18.85-22.94-37.48-35.64-55.43c-9.15-12.94-18.75-25.55-29.19-37.47
			c-14.08-16.07-29.19-31.17-46.21-44.15c-12.02-9.17-21.68-20.25-29.36-33.17c-4.62-7.78-9.18-15.59-13-23.8
			c-4.23-9.11-7.54-18.5-9.44-28.41c-2.88-15.12-1.28-29.72,5.34-43.5c10.64-22.14,26.49-39.56,48.07-51.69
			c14.39-8.08,29.93-12.06,46.16-13.37c17.14-1.39,34.18,0.05,51.17,2.84c29.01,4.76,55.95,15.36,82.05,28.41
			c15.33,7.66,30.06,16.39,44.44,25.7c20.62,13.34,41.09,26.9,60.51,41.99c1.02,0.79,2.09,1.52,3.15,2.25
			c1.43,0.97,2.8,0.69,4.24-0.69c2.9-2.77,4.88-6.03,5.35-10.05c0.26-2.23,0.67-4.56,0.32-6.73c-1.32-8.36-1.01-16.77-0.99-25.17
			c0.11-47.2,0.07-94.41,0.5-141.61c0.29-31.36,1.18-62.71,1.98-94.06c0.39-15.51,1.05-31.02,1.81-46.51
			c0.83-16.79,1.89-33.56,2.91-50.34c0.82-13.55,1.62-27.1,2.63-40.64c0.86-11.6,1.98-23.18,3.03-34.77
			c0.7-7.72,1.57-15.43,2.2-23.16c1.54-18.69,3.92-37.28,6.59-55.83c2.62-18.22,5.72-36.38,8.72-54.54
			c3.48-21.04,7.1-42.05,10.62-63.08c1.92-11.47,3.75-22.95,5.66-34.42c0.26-1.59,0.72-3.14,1.07-4.72c0.42-1.89,0.91-3.77,1.2-5.69
			c0.94-6.21-0.77-9.77-6.41-12.71c-2.85-1.48-5.88-2.68-8.92-3.72c-45.13-15.4-82.66-41.89-114.04-77.58
			c-30.07-34.2-51.63-73.23-67.05-115.89c-8.59-23.77-14.76-48.16-18.78-73.08c-4.13-25.61-5.56-51.42-4.03-77.33
			c1.15-19.4,4.48-38.48,9.18-57.34c7.7-30.91,19.23-60.25,35.28-87.79c10.62-18.23,23.02-35.19,37.54-50.46
			c34.3-36.07,75.58-60.21,124.28-71.2c28.27-6.38,56.94-8.16,85.77-5.88c30.81,2.44,60.44,10.09,89.01,21.88
			c27,11.14,52.19,25.53,76.07,42.27c6.35,4.45,12.56,9.1,18.88,13.59c2.1,1.49,4.23,3,6.52,4.15c6.29,3.18,12.49,2.67,18.44-1.01
			c1.37-0.85,2.65-1.84,3.89-2.87c2.48-2.07,4.93-4.18,7.33-6.34c35.25-31.78,74.35-57.96,116.4-79.83
			c17.48-9.09,35.35-17.38,53.48-25.1c33.6-14.31,68.09-26.15,102.95-36.93c48.75-15.07,98.03-28.24,147.49-40.72
			c32.56-8.21,65.27-15.82,98.12-22.81c28.11-5.98,56.36-11.29,84.6-16.65c25.72-4.87,51.61-8.59,77.46-12.58
			c16.92-2.62,33.93-4.63,50.93-6.64c20.85-2.47,41.73-4.77,62.62-6.9c11.25-1.15,22.54-1.85,33.83-2.65
			c14.83-1.06,29.66-2.02,44.49-3.01c2.58-0.17,5.16-0.29,7.75-0.39c37.47-1.48,74.94-2.53,112.45-2.01
			c53.98,0.75,107.95,1.32,161.93,2.19c21.33,0.34,42.65,1.1,63.96,2.03c22.92,1,45.84,2.19,68.73,3.73
			c19.34,1.3,38.64,3.18,57.96,4.86c9.01,0.79,18.03,1.58,27.01,2.62c13.16,1.51,26.3,3.15,39.43,4.89
			c10.57,1.4,21.11,2.97,31.66,4.54c16.61,2.48,33.2,5.04,49.67,8.39c39.56,8.05,78.92,16.99,118.27,25.93
			c31.8,7.22,63.6,14.47,95.28,22.18c60.26,14.66,119.91,31.44,178.41,52.16c32.28,11.43,64.13,23.89,94.93,38.91
			c34.66,16.91,67.5,36.78,97.79,60.73c7.86,6.21,15.45,12.76,23.03,19.31c4.67,4.04,9.64,7.63,15.06,10.53
			c7.63,4.07,15.54,4.13,23.29,0.4c5.83-2.81,11.15-6.46,16.21-10.55c13.85-11.2,28.6-21.09,44.2-29.68
			c29.95-16.5,61.73-27.81,95.45-33.73c21.4-3.76,42.91-5.75,64.63-4.92c38.59,1.48,75.46,10.04,110.03,27.58
			c41.95,21.28,75.09,52.24,100.21,91.91c16.73,26.42,28.64,54.94,36.48,85.15c5.37,20.68,8.83,41.68,10.39,63.03
			c0.89,12.28,1.36,24.54,0.94,36.82c-1.39,39.99-8.49,78.93-21.74,116.73c-9.98,28.48-23,55.46-39.55,80.71
			c-19.28,29.44-42.4,55.38-70.28,76.97c-20.05,15.52-41.8,28.07-65.34,37.5c-2.1,0.84-4.29,1.49-6.29,2.52
			c-2.57,1.33-5.12,2.78-7.44,4.5c-4.11,3.04-6.3,7.23-6.74,12.36c-0.42,4.88,0.13,9.71,1.03,14.47
			c3.35,17.77,6.95,35.5,10.21,53.29c2.51,13.66,4.75,27.37,6.93,41.09c2.43,15.31,4.79,30.64,6.94,46
			c1.74,12.48,3.15,25.01,4.66,37.52c1.08,8.98,2.13,17.97,3.09,26.97c0.79,7.39,1.54,14.79,2.15,22.2
			c0.95,11.6,1.85,23.2,2.61,34.81c1.06,16.13,2.15,32.25,2.89,48.4c0.97,20.99,1.42,42,1.06,63.02
			c4.11,25.61,2.09,51.43,2.55,77.16c0.13,7.42-0.14,14.84,0.12,22.26c0.15,4.17,0.01,8.98,4.64,10.85c4.5,1.82,7.96-1.51,11.2-4.12
			c6.05-4.89,10.92-10.94,16.04-16.75c20.37-19.76,44.62-32.65,71.72-40.53c16.89-4.91,34.08-7.57,51.65-5.79
			c31.81,3.22,56.98,17.55,73.62,45.45c5.33,8.94,8.74,18.66,10.75,28.88c3.76,19.11,2.14,37.88-3.26,56.47
			c-8.01,27.56-20.89,52.71-37.5,76.01c-1.66,2.34-2.95,5.01-5.4,6.72c-3.2,3.15-6.27,6.33-9.99,9
			c-14.87,10.67-21.47,26.29-24.58,43.61c-6.4,35.72-15.68,70.66-27.76,104.85c-16.05,45.42-37.69,87.85-68.23,125.39
			c-3.29,4.05-7.03,11.38-12.56,7.92c-6.2-3.88-1-10.71,1.43-15.53c7.31-14.47,18.36-26.55,26.6-40.47
			c26.54-44.85,45.11-92.92,57.97-143.3c6.47-25.36,13.01-50.72,18.2-76.39c1.02-5.06,2.27-10.09,1.63-15.33
			c6.23-19.97,14.37-39.26,21.43-58.94c6.08-16.97,11.43-34.23,18.88-50.7c0.82-1.68,1.59-3.38,2.25-5.13
			c0.31-0.86,0.73-1.67,1.2-2.45c0.86-1.33,1.94-2.49,2.97-3.69c2.42-2.85,3.75-5.91,1.71-9.52c-0.98-1.74-2.45-3.14-4.58-2.59
			c-3.66,0.94-4.18,4.39-5.32,7.29c-0.7,1.78-1.53,3.47-2.67,5.02c-15.73,18.29-31.06,36.94-48.19,53.97
			c-7.69,7.64-17,9.29-24.37,4.69c-9.18-5.72-12.39-15.21-7.74-26.09c6.62-15.52,15.53-29.57,28.55-40.73
			c10.72-9.19,17.09-21.67,24.19-33.49c4.12-6.87-1.65-8.87-6.7-10.69c-11.17-7.13-22.82-6.93-35.35-3.77
			c-20.73,5.23-38.33,16.73-57,26.24c-22.2,11.3-38.05,29.47-54.39,47.36c-28.39,31.07-53.98,64.31-77.14,99.37
			c-29.88,45.22-61.68,89.4-81.14,140.66c-6.57,17.3-11.04,35.07-12.42,53.58c-0.41,5.48-1.78,10.83-2.73,16.24
			c-6.81,24.89-8.5,50.11-5.12,75.68c0.64,4.81,0.42,9.66,0.43,14.5c0.06,21.71,14.49,43.23,34.66,51.25
			c10.49,4.17,21.38,7.24,32.18,10.5c6.77,2.04,13.5-0.03,20.08-1.16c20.12-3.46,39.42-9.65,57.76-18.74
			c6.06-3,11.9-6.49,18.38-8.59c9.93-0.51,17.66-5.14,24.35-12.31c5.49-5.89,11-11.83,17.36-16.83c2.53-1.99,5.54-3.95,8.8-1.62
			c3.26,2.32,2.34,5.73,1.32,8.84c-3.22,9.77-10.41,16.4-18.8,21.36c-24.12,14.27-37.48,34.75-38.16,63.07
			c-0.23,9.55,2,19.07,0.46,28.64c-0.17,2.9-0.51,5.8-0.48,8.69c0.34,40.38,0.62,80.77,1.15,121.15c0.32,24.55,0.96,49.1,1.61,73.64
			c0.97,36.81,2.14,73.62,3.07,110.44c0.92,36.49,1.49,73,2.51,109.49c0.77,27.77,2.01,55.52,3.04,83.28
			c0.06,1.61,0.15,3.23,0.22,4.84c0.93,21.95,1.78,43.9,2.83,65.84c0.81,16.78,1.89,33.54,2.84,50.31c0.07,1.29,0.13,2.58,0.2,3.87
			c0.93,18.07,1.81,36.13,2.8,54.2c1.26,22.9,2.6,45.79,3.91,68.69c1.27,22.25,2.52,44.5,3.81,66.75
			c0.93,16.12,1.89,32.24,2.84,48.37c0.06,0.97,0.12,1.93,0.17,2.9c0.91,20.33,1.82,40.66,2.72,60.99c0.95,21.3,1.9,42.6,2.84,63.89
			c0.11,2.58,0.22,5.16,0.3,7.75c0.94,31.64,1.82,63.29,2.83,94.93c0.41,12.91,1.11,25.8,1.67,38.7
			c2.16,14.38-0.62,28.92,1.44,43.31C3472.67,3608.08,3472.9,3610.23,3473.31,3612.37z"/>
		<path class="st2" d="M3597.78,2002.67c0.94,2.05,1.7,3.91,0.95,6.43c-1.27,4.28-2.1,8.74-2.7,13.17
			c-0.35,2.58-1.15,5.01-1.66,7.51c-4.55,22.03-10.49,43.72-15.76,65.58c-1.28,5.33-3.96,10.25-4.3,15.81
			c-4.31,14.5-8.72,28.98-13.72,43.26c-2.55,7.28-5.74,14.34-8.61,21.51c-7.34,18.3-16.56,35.71-25.76,53.09
			c-6.16,11.63-13.4,22.71-21.62,33.1c-3.38,4.28-6.3,8.96-9.18,13.61c-2.73,4.4-4.48,9.29-5.8,14.28c-0.2,0.77,0.18,2.09,0.76,2.56
			c0.54,0.43,2.07,0.41,2.57-0.05c2.59-2.41,5.57-4.68,7.3-7.65c2.32-4,6.13-6.59,8.49-10.51c2.15-3.56,4.55-6.99,7.13-10.31
			c3.74-4.82,7.2-9.91,10.24-15.2c3.21-5.58,7.08-10.8,9.54-16.8c5.69-8.28,9.74-17.46,14.05-26.46c3.47-7.25,6.42-14.75,9.54-22.17
			c1.62-3.86,3.06-7.79,4.63-11.66c4.74-11.66,10.99-30.97,14.99-44.85c1.51-5.25,3.04-10.5,4.59-15.74
			c2.73-9.25,5.01-18.58,6.99-28.03c1.64-7.84,2.79-15.79,4.91-23.54c1.01-3.68,1.57-7.54,2.27-11.32
			c1.69-9.1,6.42-16.81,10.38-24.9c0.55-1.13,1.5-2.1,2.39-3.02c2.01-2.1,4.11-4.11,6.14-6.19c2.71-2.79,5.52-5.37,9.19-6.98
			c2.62-1.15,5.03-2.8,7.53-4.22c-0.17,0.62-0.22,1.31-0.53,1.85c-9.85,17.22-16.28,35.78-21.27,54.87
			c-4,15.29-7.52,30.71-11.61,45.97c-11.3,42.14-25.43,83.27-44.66,122.53c-8.53,17.41-18.13,34.21-28.95,50.3
			c-21.24,31.59-46.64,59.34-76.77,82.68c-2.04,1.58-4.06,3.19-5.93,4.97c-5.12,4.86-8,10.91-8.7,17.89
			c-0.38,3.84-0.37,7.73-0.39,11.61c-0.02,4.2,0.1,8.39,0.2,12.59c0.11,4.9-0.85,9.63-2.32,14.26c-0.18,0.55-0.81,0.96-1.22,1.44
			c-1.5-4.62-2.32-9.33-2.03-14.22c0.15-2.57,0.03-5.14-1.04-7.59c-1.1-2.49-0.76-4.97,0.08-7.52c0.59-1.8,0.94-3.76,0.94-5.66
			c0.05-12.28,4.4-23.23,10.18-33.75c0.76-1.38,1.93-2.57,3.05-3.71c3.37-3.46,6.84-6.82,10.22-10.28
			c3.39-3.47,6.95-6.54,11.45-8.69c7.07-3.38,12.43-9.05,17.68-14.73c0.65-0.7,1.17-1.54,1.63-2.38c1.74-3.11,2.68-6.53,3.41-9.98
			c0.14-0.66-0.75-1.69-1.39-2.32c-0.35-0.35-1.22-0.39-1.78-0.26c-2.25,0.52-4.1,1.77-5.72,3.41c-2.95,2.98-5.92,5.92-8.89,8.88
			c-3.65,3.64-7.44,7.16-10.89,10.97c-3.37,3.73-7.72,5.72-12.13,7.68c-1.14,0.51-2.49,0.66-3.76,0.7c-1.93,0.07-3.86-0.1-5.79-0.17
			c1.04-8.04,10.14-10.58,12.2-17.93c0.36-0.84,0.81-1.63,1.3-2.41c0.76-1.19,1.6-2.31,2.46-3.43
			c16.21-18.83,31.78-38.12,45.4-58.98c27.22-41.72,46.58-86.86,59.9-134.74c9.93-35.71,17.57-72.15,33.32-106.03
			C3592.39,2007.53,3592.53,2002.85,3597.78,2002.67z"/>
		<path class="st3" d="M3471.65,1835.76c0.26,2.3,0.17,4.56-1.45,6.38c-5.78,6.49-11.86,12.65-19.24,17.38
			c-0.54,0.35-1.09,0.68-1.66,0.97c-3.99,1.98-8.66,0.38-10.61-3.59c-1-2.04-1.8-4.11-1.79-6.44c0.01-2.89-0.09-5.79-0.09-8.68
			c0.04-24.76,0.11-49.52,0.12-74.27c0-6.11-0.2-12.21-0.25-18.32c-0.01-0.94,0.28-1.89,0.43-2.84c3.39,9.11,4.99,18.6,5.5,28.23
			c0.46,8.66,0.52,17.34,0.51,26.02c0,10.61,0.32,21.21,1.37,31.77c0.32,3.18,0.93,6.34,1.49,9.49c0.22,1.26,1.72,2.01,2.98,1.55
			c2.71-0.99,5.41-2.03,8.1-3.06c3.3-1.26,6.56-2.63,9.9-3.77C3468.43,1836.07,3470.07,1836.02,3471.65,1835.76z"/>
		<path class="st1" d="M3473.39,3605.94c-0.31-1.23-0.86-2.46-0.89-3.7c-0.36-12.57-0.64-25.14-0.91-37.71
			c-0.01-0.63,0.23-1.26,0.36-1.89c0.94,0.91,1.6,1.99,1.63,3.32c0.08,4.13,0.12,8.26,0.16,12.39c0.06,6.35,0.15,12.71,0.12,19.06
			C3473.84,3600.25,3473.55,3603.1,3473.39,3605.94z"/>
		<path class="st4" d="M3262.56,2355.72c10.94,10.69,23.14,19.64,36.83,26.5c11.95,5.99,24.62,9.68,37.82,11.62
			c3.54,0.52,7.09,0.49,10.62-0.15c6.99-1.27,14-2.47,20.95-3.91c4.47-0.93,8.96-1.21,13.49-1.11c7.11,0.16,12.3,3.52,15.68,9.68
			c2.36,4.31,3.64,8.98,3.99,13.87c0.21,2.9,0.42,5.82,0.29,8.72c-0.92,19.37-1.71,38.75-3.02,58.09
			c-0.52,7.74-1.23,15.47-1.12,23.23c0.27,18.1,0.71,36.2,1.07,54.3c0.29,14.87,0.55,29.74,0.84,44.61
			c0.85,43.31,1.68,86.63,2.58,129.94c0.52,24.89,1.13,49.77,1.75,74.66c0.65,25.85,1.34,51.71,2.08,77.56
			c0.55,19.39,1.08,38.78,1.83,58.16c0.81,21,1.85,41.98,2.79,62.97c0.04,0.97,0.1,1.94,0.14,2.91c0.93,20.67,1.77,41.34,2.83,62
			c0.81,15.82,1.9,31.62,2.86,47.43c0.04,0.65,0.07,1.29,0.11,1.94c0.91,17.11,1.76,34.22,2.76,51.32
			c0.89,15.16,1.94,30.32,2.92,45.48c0.08,1.29,0.16,2.58,0.23,3.87c0.93,17.43,1.84,34.86,2.78,52.29
			c1.32,24.53,2.68,49.06,3.98,73.59c0.64,11.94,1.22,23.89,1.77,35.83c0.96,20.67,1.89,41.33,2.83,62
			c0.07,1.61,0.14,3.23,0.19,4.85c1.57,54.94,3.01,109.88,2.45,164.85c-3.23,0.06-6.46,0.18-9.69,0.18
			c-919.24,0.01-1838.47,0.01-2757.71,0c-4.52,0-9.04-0.05-13.56-0.07c0.31-4.51,0.76-9.02,0.91-13.54
			c0.29-8.72,0.41-17.45,0.63-26.18c0.8-32,1.56-63.99,2.44-95.98c0.52-19.07,1.09-38.13,1.89-57.19
			c0.78-18.73,1.84-37.45,2.85-56.17c0.87-16.14,1.77-32.27,2.78-48.4c0.89-14.19,1.95-28.37,2.93-42.56
			c0.07-0.97,0.14-1.94,0.19-2.9c0.89-16.14,1.74-32.28,2.69-48.41c0.91-15.49,1.94-30.97,2.92-46.45c0.06-0.97,0.13-1.94,0.17-2.9
			c0.92-18.73,1.8-37.45,2.78-56.18c0.91-17.43,1.93-34.85,2.89-52.28c0.04-0.65,0.07-1.29,0.1-1.94
			c0.92-21.64,1.81-43.28,2.77-64.92c0.93-20.99,1.93-41.98,2.9-62.96c0.04-0.97,0.1-1.94,0.13-2.91
			c0.87-24.88,1.77-49.75,2.59-74.63c0.85-25.85,1.65-51.7,2.43-77.55c0.6-20.03,1.2-40.07,1.68-60.1c0.77-32,1.24-64,2.21-95.99
			c1.22-40.4,1.29-80.81,1.78-121.22c0.06-5.17,0.08-10.35,1.03-15.46c0.24-1.27,0.33-2.57,0.63-3.83
			c1.5-6.3,5.45-10.14,11.81-11.36c1.89-0.36,3.86-0.54,5.78-0.47c5.49,0.18,10.97,0.47,16.45,0.83
			c22.26,1.48,43.91-1.24,64.48-10.14c34.85-15.06,56.08-41.51,64.35-78.42c3.87-17.26,3.53-34.64,0.65-52.03
			c-2.12-12.81-5.96-25.11-10.57-37.22c-12.34-32.45-27.96-63.2-47.34-92.02c-25.28-37.58-55.85-70.27-90.98-98.77
			c-3.51-2.85-6.96-5.79-10.23-8.9c-11.59-11.03-17.07-24.84-18.07-40.6c-0.16-2.58-0.13-5.17-0.13-7.76
			c-0.02-48.17-0.06-96.34-0.04-144.52c0.01-13.9-0.07-27.81,0.35-41.7c0.8-26.49,1.94-52.98,2.94-79.46
			c0.05-1.29,0.11-2.58,0.17-3.88c0.93-21.64,1.74-43.28,2.84-64.91c0.75-14.85,1.89-29.67,2.86-44.51c0.1-1.61,0.18-3.23,0.31-4.84
			c1.23-16.11,2.43-32.22,3.71-48.33c0.82-10.31,1.65-20.62,2.64-30.91c0.86-9,1.94-17.99,2.95-26.98
			c0.76-6.74,1.59-13.48,2.35-20.22c2.07-18.3,4.71-36.53,7.51-54.73c2.46-15.97,5.17-31.89,8.12-47.77
			c10.29-55.34,23.72-109.89,41.96-163.16c13.5-39.42,27.69-78.6,41.86-117.78c11.86-32.81,24.64-65.28,38.75-97.2
			c15.82-35.8,33.65-70.55,54.2-103.9c34.83-56.5,78.56-104.88,131.29-145.16c32.21-24.6,66.69-45.51,102.92-63.6
			c38.81-19.38,79.05-35.2,120.24-48.69c41.75-13.68,84.05-25.5,126.51-36.73c43.1-11.4,86.53-21.41,130.18-30.41
			c25.62-5.28,51.32-10.22,77.13-14.49c17.84-2.95,35.66-6.07,53.54-8.81c15.96-2.44,31.98-4.51,47.98-6.66
			c12.8-1.72,25.62-3.38,38.44-4.98c7.37-0.92,14.77-1.66,22.16-2.44c10.6-1.13,21.2-2.27,31.81-3.32
			c8.68-0.86,17.37-1.6,26.06-2.37c6.44-0.57,12.87-1.18,19.32-1.65c12.25-0.88,24.5-1.74,36.75-2.49
			c18.39-1.12,36.78-2.13,55.17-3.19c1.29-0.07,2.58-0.14,3.87-0.19c62.67-2.59,125.37-3.11,188.08-1.84
			c18.74,0.38,37.48,0.99,56.21,1.86c23.57,1.09,47.12,2.41,70.67,3.88c16.45,1.03,32.88,2.34,49.29,3.8
			c16.41,1.46,32.79,3.21,49.18,4.91c14.14,1.47,28.28,2.93,42.4,4.59c12.19,1.44,24.35,3.12,36.51,4.76
			c10.88,1.47,21.76,2.98,32.62,4.6c14.38,2.15,28.76,4.27,43.09,6.67c16.56,2.77,33.08,5.81,49.61,8.78
			c27.02,4.86,53.91,10.4,80.72,16.31c41.32,9.11,82.41,19.19,123.18,30.51c18.05,5.01,36.01,10.33,54.01,15.5
			c25.77,7.41,51.22,15.8,76.34,25.16c47.05,17.53,92.21,38.96,135.07,65.19c38.16,23.35,73.75,50.12,106.62,80.47
			c18.09,16.7,34.55,34.92,49.67,54.34c22.71,29.17,41.87,60.58,58.83,93.37c13.81,26.71,25.97,54.17,37.3,82.01
			c19.49,47.88,38.02,96.12,54.82,145.01c17.02,49.52,32.11,99.6,44.32,150.53c5.8,24.19,10.97,48.52,15.29,73.02
			c3.76,21.32,7.09,42.7,9.68,64.2c2.32,19.25,4.73,38.48,6.96,57.74c1.08,9.31,1.8,18.66,2.75,27.98
			c1.4,13.82,2.87,27.64,4.29,41.46c0.23,2.25,0.46,4.5,0.57,6.76c0.94,20.34,1.95,40.68,2.75,61.03
			c0.72,18.41,1.17,36.83,1.83,55.25c0.24,6.78,0.83,13.55,1.15,20.33c1.17,25.19,2.33,50.39,0.72,75.61
			c-0.85,13.26-3,26.31-6.12,39.21c-0.29,1.22-1.08,2.31-1.64,3.47c-10.15,12.16-22.57,22.12-32.77,34.25
			c-15.66,18.63-27.72,39.67-40.64,60.12c-16.88,26.72-36.01,52.03-50.08,80.52c-25.91,52.45-41.52,107.59-44.98,166.14
			c-0.61,10.29-1.39,20.56-1.76,30.88C3228.64,2306.06,3235.91,2334.72,3262.56,2355.72z"/>
		<path class="st5" d="M353.28,2048.85c11.29,7.41,22.57,14.83,33.87,22.23c9.69,6.34,19.34,12.74,29.12,18.94
			c2.97,1.88,6.18,3.47,9.46,4.74c9.28,3.6,15.88-0.48,19.82-8.44c1.6-3.24,1.92-6.75,0.86-10.34c-1.02-3.46-2.54-6.63-5.09-9.18
			c-2.73-2.72-5.48-5.47-8.49-7.86c-9.82-7.81-19.75-15.48-29.67-23.16c-5.09-3.94-10.24-7.79-15.36-11.68
			c-4.86-2.81-8.27-7.17-11.56-11.49c-6.96-9.12-5.66-16.75,3.62-23.67c16.73-6.79,34.16-9.73,52.13-8.84
			c14.26,0.7,28.17,3.56,41.74,8.08c15.37,5.13,30.01,11.91,44.21,19.66c30.94,16.89,60.98,35.24,90.01,55.23
			c47.53,32.73,91.66,69.49,131.73,111.06c4.48,4.65,8.89,9.39,13.26,14.14c22.98,24.98,40.68,53.38,54.59,84.24
			c8.91,19.78,16.06,40.18,21.92,61.04c3.26,11.61,4.52,23.43,2.78,35.5c-2.5,17.34-10.27,31.82-23.26,43.5
			c-14.13,12.69-30.98,19.59-49.46,22.9c-19.49,3.49-38.61,1.47-57.5-3.94c-16.06-2.42-28.15-13.82-43.03-19.04
			c-7.84-2.75-15.9-5.4-23.07-9.9c-37.91-25.63-71.75-55.83-101.5-90.58c-22.31-26.06-41.78-54.11-58.31-84.17
			c-6.69-12.17-13.85-24.03-21.86-35.37c-10.26-14.52-21.51-28.23-33.64-41.2c-10.58-11.31-21.42-22.37-32.4-33.3
			c-11.43-11.38-23.16-22.47-34.75-33.68c-1.85-1.79-3.76-3.54-5.51-5.44c-1.53-1.67-2.82-3.54-3.18-5.87
			c-1.41-6.35-2.37-12.66,0.8-18.83C347.18,2050.92,348.49,2047.35,353.28,2048.85z"/>
		<path class="st6" d="M3597.78,2002.67c-2.03,1.37-2.49,3.74-3.39,5.74c-7.21,15.91-13.22,32.29-17.99,49.09
			c-5.29,18.64-10.3,37.36-15.31,56.07c-11.77,43.94-28.71,85.71-52.17,124.75c-13.01,21.65-27.51,42.24-44.29,61.16
			c-4.07,4.59-8.16,9.16-12.24,13.74c-0.63,0.67-1.44,1.19-1.79,2.1l0.01,0c-17.68,7.28-32.21,20.13-49.78,27.74
			c-24.43,10.59-48.96,15.97-75.26,7.36c-30.87-10.11-47.21-31.59-50.05-63.4c-1.09-12.18-1.06-24.53,0.33-36.78
			c1.53-20.66,6.18-40.77,10.39-60.99c10.82-52.08,32.91-99.02,62.26-143.11c29.59-44.45,60.74-87.67,94.62-128.93
			c26.52-32.3,56.68-60.11,95.34-77.65c14.91-6.76,30.56-10.33,46.43-13.39c4.58-0.88,8.94,0.66,13.32,1.75
			c3-0.04,5.71,0.88,8.17,2.55c2.12,1.44,3.25,4.51,2.3,6.82c-0.97,2.37-1.99,4.77-3.38,6.91c-4.91,7.57-10.04,14.99-14.98,22.54
			c-1.79,2.73-3.85,5.08-6.46,7.08c-6.96,5.34-12.66,11.89-17.64,19.1c-4.22,6.11-7.97,12.5-11.23,19.16
			c-1.13,2.3-2.05,4.74-2.73,7.21c-2.79,10.04,4.14,18.81,12.04,21.39c4.18,1.37,8.34,0.97,12.08-1.42
			c2.15-1.38,4.18-3.02,6.04-4.77c2.1-1.98,4-4.2,5.92-6.37c14.1-15.93,28.18-31.87,42.27-47.81c5.73-1.93,8.17,1.49,9.9,6.08
			c-0.06,0.59-0.16,1.17-0.32,1.75c-0.81,1.27-0.49,2.96-1.57,4.13c-10.4,28.76-20.8,57.52-31.22,86.27
			c-2.63,7.26-5.08,14.6-8.9,21.37C3598.06,2000.71,3598.02,2001.75,3597.78,2002.67z"/>
		<path class="st7" d="M3344.96,754.52c32.58-0.06,63.37,7.62,92.93,20.86c14.49,6.49,28.35,14.19,41.24,23.41
			c23.38,16.74,42.87,37.26,58.03,61.79c13.36,21.6,22.89,44.83,29.6,69.26c4.54,16.53,7.98,33.29,10.04,50.32
			c1.24,10.26,2.36,20.54,3.39,30.82c0.58,5.8,0.49,11.62-0.02,17.43c-3.12,36.18-9.37,71.73-21.23,106.15
			c-11.68,33.9-28.24,65.16-50.95,93.02c-9.61,11.79-20.19,22.63-31.51,32.84c-17.62,15.9-36.96,29.25-57.51,40.97
			c-5.05,2.88-10.17,5.62-15.71,7.51c-2.48,0.85-4.95,1.37-7.57,1.37c-3.52,0.01-6.21-1.52-8.3-4.23
			c-2.41-3.13-3.85-6.75-4.75-10.53c-1.42-5.96-2.62-11.98-3.85-17.99c-0.52-2.53-1-5.08-1.29-7.64
			c-0.58-5.18-2.16-10.08-3.71-15.02c-3.09-9.87-5.72-19.84-7.52-30.05c-1.86-10.6-2.3-21.23-1.19-31.87
			c1.56-14.92,7.62-27.95,17.84-38.96c4.85-5.23,10.09-10.03,16.27-13.68c3.89-2.3,7.71-4.75,11.74-6.78
			c4.73-2.38,8.63-5.63,11.81-9.81c13.6-17.91,24.38-37.24,30.41-59.09c3.81-13.79,6-27.81,6.26-42.07
			c0.28-15.27-1.86-30.25-6.75-44.82c-6.19-18.45-17.28-33.05-33.42-43.88c-6.73-4.51-13.81-8.36-21.21-11.65
			c-13.36-5.94-27.24-9.92-41.74-12.01c-9.97-1.44-19.93-1.92-29.95-1.71c-14.32,0.29-28.26,2.82-41.75,7.61
			c-7.04,2.5-14.22,4.16-21.68,4.85c-14.66,1.35-26.65-3.85-36.21-14.72c-3.4-3.86-6.19-8.26-9.14-12.5
			c-3.5-5.04-6.66-10.32-10.31-15.25c-9.73-13.15-21.51-24.04-35.99-31.89c-2.82-1.53-5.52-3.37-8.07-5.32
			c-1.5-1.15-2.75-2.72-3.85-4.29c-1.83-2.61-1.92-5.45-0.28-8.21c0.82-1.38,1.69-2.8,2.83-3.89c2.34-2.22,4.72-4.45,7.35-6.28
			c27.16-18.86,55.84-34.94,86.78-46.8c20.61-7.9,41.86-13.31,63.77-15.83C3328.14,754.99,3336.57,754.97,3344.96,754.52z"/>
		<path class="st7" d="M517.43,1033.03c0.29-32.25,4.15-63.27,12.02-93.77c7.15-27.69,17.76-53.95,32.74-78.39
			c14.52-23.67,32.57-44.23,54.6-61.1c18.34-14.04,38.63-24.66,60.57-31.97c16.91-5.64,34.24-9.41,52.03-10.83
			c5.47-0.44,10.94-1.07,16.42-1.21c30.69-0.83,60.47,4.2,89.45,14.22c12.23,4.23,24.11,9.27,35.71,14.98
			c20.04,9.87,38.94,21.66,57.08,34.66c2.09,1.5,4.03,3.22,5.95,4.95c0.95,0.86,1.75,1.9,2.47,2.96c2.45,3.56,2.22,7.45-0.87,10.6
			c-1.79,1.83-3.8,3.56-5.99,4.84c-11.63,6.79-21.01,16.06-29.44,26.38c-4.09,5-7.97,10.18-11.95,15.26
			c-3.79,4.83-7.54,9.7-11.4,14.46c-5.11,6.3-11.02,11.76-17.3,16.89c-9.2,7.53-19.55,9.51-30.94,7.27
			c-7.3-1.44-14.39-3.63-21.33-6.34c-7.53-2.93-15.28-5.13-23.16-6.98c-7.36-1.73-14.74-2.04-22.14-1.01
			c-11.83,1.66-23.65,3.4-35.39,5.56c-12.41,2.28-24.47,5.88-36.02,11.06c-20.04,9-34.51,23.51-43.4,43.6
			c-0.26,0.59-0.6,1.15-0.85,1.74c-6.07,14.77-9.7,30.07-10.49,46.06c-1.11,22.61,2.24,44.43,11.1,65.35
			c9.41,22.22,23.5,40.8,42.96,55.13c7.82,5.76,15.43,11.71,22.12,18.79c5.36,5.67,10.04,11.81,13.54,18.81
			c5.8,11.58,7.89,23.76,6.35,36.67c-1.16,9.7-3.61,19.04-7.12,28.1c-2,5.17-3.17,10.42-3.77,15.94
			c-1.22,11.24-3.32,22.36-6.09,33.33c-0.86,3.43-2.17,6.77-3.46,10.07c-0.7,1.79-1.67,3.52-2.77,5.1c-2.98,4.3-7.03,6.62-12.4,5.98
			c-1.91-0.23-3.89-0.48-5.65-1.2c-4.17-1.71-8.43-3.36-12.3-5.64c-20.11-11.8-39.01-25.29-56.42-40.86
			c-9.65-8.63-18.92-17.61-27.48-27.31c-36.73-41.66-60.48-89.72-71.27-144.2C519.34,1071.59,516.99,1052.07,517.43,1033.03z"/>
		<path class="st8" d="M3262.56,2355.72c-1.75-0.8-3.77-1.26-5.21-2.45c-10.3-8.49-19.66-17.76-23.59-31.1
			c-1.91-6.47-4.25-12.85-4.51-19.7c-2.73-10.47-1.67-21.16-1.83-31.77c-0.07-4.84,0-9.69,0.09-14.53c0.04-1.93-0.04-3.96,0.54-5.75
			c1.22-3.79,1.1-7.64,1.21-11.51c0.14-5.15-0.22-10.32,1.54-15.34c0.52-1.47,0.35-3.19,0.4-4.8c0.1-3.23,0.01-6.47,1.33-9.53
			c0.25-0.58,0.36-1.25,0.41-1.89c1.06-14.83,4.9-29.15,8.39-43.5c2.81-11.56,6.05-23.04,10.07-34.25
			c3.8-10.61,8.02-21.06,12.51-31.41c3.47-7.99,7.07-15.91,11.02-23.67c5.56-10.93,11.58-21.58,18.27-31.87
			c4.21-6.49,8.07-13.22,12.52-19.53c3.34-4.74,6.87-9.34,9.93-14.28c4.75-7.67,9.56-15.3,14.34-22.96
			c0.68-1.09,1.32-2.21,2.02-3.29c4.4-6.75,8.7-13.56,13-20.37c5.5-8.71,11.84-16.84,18.21-24.97c8.22-10.5,17.95-19.42,27.42-28.63
			c2.73-2.65,6.24-4.49,9.4-6.71c-0.25,0.92-0.32,1.93-0.76,2.75c-8.91,16.49-18.79,32.38-29.83,47.54
			c-12.16,16.71-24.34,33.39-36.48,50.12c-13.86,19.1-26.52,38.98-37.85,59.66c-19.01,34.68-33.91,71.03-43.31,109.52
			c-3.06,12.54-5.39,25.21-7.41,37.96c-3.45,21.77-4.46,43.64-3.85,65.63c0.49,17.59,4.28,34.53,9.95,51.1
			c2.83,8.25,6.2,16.28,10.03,24.12C3261.36,2352.06,3261.89,2353.92,3262.56,2355.72z"/>
		<path class="st9" d="M3598.21,1827.92c-0.32,0.06-0.64,0.18-0.95,0.16c-10.78-0.62-21.07,2.21-31.41,4.57
			c-17.8,4.07-33.84,12.23-49.51,21.35c-8.41,4.89-15.96,10.91-23.66,16.72c-4.61,3.47-8.96,7.38-13.25,11.26
			c-6.22,5.63-11.95,11.8-17.89,17.74c-5.41,8.08-12.86,14.4-18.8,22.07c-7.88,10.18-16.2,20.03-24.06,30.24
			c-9.23,12-18.36,24.07-27.27,36.31c-15.2,20.87-29.59,42.26-43.59,63.92c-7.34,11.36-14.56,22.83-21.13,34.69
			c-3.76,6.77-7.5,13.54-10.96,20.47c-4.19,8.38-7.59,17.08-10.66,25.92c-1.27,3.65-2.46,7.33-3.76,10.98
			c-5.63,15.8-9.41,32.13-13.25,48.4c-2.88,12.19-5.4,24.48-7.84,36.78c-0.5,2.51-0.45,5.14-0.55,7.71
			c-0.11,2.9,0.03,5.83-0.23,8.71c-0.11,1.19-0.96,2.32-1.47,3.47c-6.01-9.44-2.41-19.85-2.78-29.82
			c-0.13-3.72,0.41-7.58,0.52-11.39c0.84-8.02,1.37-16.1,2.6-24.06c2.38-15.34,6.2-30.34,11.59-44.92
			c7.07-19.13,15.96-37.41,26.32-54.95c7.88-13.34,16.07-26.5,24.36-39.59c19.35-30.56,39.32-60.71,61.05-89.63
			c24.09-32.06,50.11-62.46,79.45-89.9c1.42-1.32,2.86-2.61,4.27-3.95c1.89-1.79,4.06-3.11,6.35-4.36
			c9.63-5.25,19.25-10.53,28.73-16.07c7.27-4.25,14.8-7.9,22.5-11.25c10.44-4.54,21.51-6.83,32.71-8.44
			c5.21-0.75,10.33,0.27,15.08,2.53C3593.3,1824.82,3595.71,1826.46,3598.21,1827.92z"/>
		<path class="st10" d="M3275.68,2208.18c1.47,2.57,2.18,5.3,2.13,8.31c-0.11,7.1-0.08,14.19-0.06,21.29
			c0.01,3.87,0.12,7.74,0.18,11.61c-0.01,11.3-0.28,22.6,0.02,33.88c0.3,11.39,2.94,22.38,8.06,32.56
			c4.09,8.12,9.83,14.94,17.35,20.41c10.94,7.96,23.2,12.45,36.22,15.29c1.56,0.34,3.2,0.38,4.81,0.42
			c3.87,0.09,7.74,0.08,11.61,0.13c7.81,0.12,15.36-1.5,22.76-3.77c20.2-6.18,38.92-15.36,55.8-28.16c0.26-0.19,0.49-0.41,0.75-0.62
			c4.49-3.59,9.45-5.49,15.28-4.22c0.46,2.36-0.3,4.44-1.83,6.13c-1.9,2.1-3.97,4.06-6.06,5.98c-2.31,2.13-4.96,3.93-6.41,6.87
			c-22.42,13.25-46.29,22.74-71.92,27.64c-1.27,0.24-2.51,0.61-3.79,0.8c-5.42,0.8-10.84,1.95-16.29,2.2
			c-5.23,0.24-9.92-2.61-14.85-4.03c-7.75-2.24-15.29-5.14-22.98-7.58c-5.35-1.7-10.01-4.35-13.91-8.41
			c-3.13-3.26-6.57-6.23-9.61-9.56c-4.82-5.28-8.78-11.15-11.15-17.99c-0.85-2.46-1.46-4.92-1.5-7.55
			c-0.06-4.52-0.23-9.04-0.47-13.56c-0.3-5.48-0.88-10.94-1.07-16.42c-0.49-14.19-1.04-28.37,0.6-42.57
			c1.01-8.69,2.31-17.27,4.65-25.68C3274.35,2210.39,3275.12,2209.31,3275.68,2208.18z"/>
		<path class="st11" d="M635.9,2402.56c1.58,0.16,3.25,0.03,4.71,0.52c6.04,2.04,12.03,4.16,17.94,6.6
			c10.06,4.15,19.71,9.01,29.07,14.51c4.12,2.42,8.32,4.71,12.94,6.1c0.55,0.17,0.96,0.8,1.44,1.22
			c-6.08-0.08-12.11-0.65-18.14-1.54c-12.29-1.82-23.38-6.33-33.37-13.75c-4.64-3.45-9.14-7.01-13.04-11.3
			C636.83,2404.23,636.41,2403.35,635.9,2402.56z"/>
		<path class="st12" d="M379.85,1988.94c-1.14,1.54-2.23,3.12-3.43,4.6c-3.49,4.29-3.07,8.91-1.13,13.6c1.26,3.03,3.6,5.31,5.86,7.6
			c2.72,2.77,5.27,5.64,6.65,9.36c-5.5-0.4-10.63-2.28-15.73-4.13c-3.62-1.31-7.08-3.12-9.65-6.11c-1.44-1.68-2.81-3.52-3.74-5.5
			c-2.33-4.96-1.32-9.17,2.69-13.05c3.09-2.99,6.9-4.65,10.91-5.82C374.7,1988.78,377.27,1988.34,379.85,1988.94z"/>
		<path class="st13" d="M353.28,2048.85c-1.94,0.34-3.53,1.09-4.16,3.2c-0.71,2.39-1.37,4.82-2.32,7.12c-1.46,3.56-1.97,7.2-1.71,11
			c0.06,0.91-0.22,1.85-0.35,2.77c-0.46-0.81-1.17-1.58-1.34-2.44c-0.37-1.91-0.83-3.65-2.2-5.19c-1.26-1.41-2.33-3.05-3.22-4.73
			c-3.22-6.1-2.01-11.72,2.1-16.94c0.2-0.25,0.45-0.45,0.68-0.68c2.05-2.13,5.86-2.17,7.72-0.01
			C350.14,2044.86,351.68,2046.88,353.28,2048.85z"/>
		<path class="st14" d="M3640.51,1886.39c-1.62-1.43-3.3-2.8-4.84-4.32c-1.44-1.43-3.11-1.94-5.07-1.76c1.12-2.3,1.99-4.65,2.51-7.2
			c0.6-2.92,2.36-5.27,5.16-6.62c1.19-0.57,2.41-0.76,3.71-0.22c2.48,1.04,4.51,2.73,5.62,5.08c1.46,3.09,1.17,6.31-0.86,9.17
			C3645.08,1882.88,3643.23,1885.11,3640.51,1886.39z"/>
		<path class="st14" d="M3638.63,1892.27c-0.35-1.71,0.05-3.13,1.57-4.13C3640.72,1889.91,3639.91,1891.18,3638.63,1892.27z"/>
		<path class="st10" d="M3450.59,2315.32c-0.09-1.29,0.69-1.83,1.79-2.1C3452.24,2314.3,3451.89,2315.21,3450.59,2315.32z"/>
		<path class="st15" d="M1797.99,3217.74c0-13.25-0.01-26.51,0-39.76c0.02-25.22,0.04-50.43,0.1-75.65
			c0.01-6.13,0.28-12.22,1.23-18.34c0.83-5.4,1.25-10.87,2.26-16.28c3.81-20.38,11.81-38.96,24.41-55.34
			c10.33-13.43,22.86-24.56,37.84-32.78c15.15-8.31,31.23-13.79,48.26-16.72c6.39-1.1,12.76-1.9,19.23-2.02
			c1.61-0.03,3.25-0.08,4.82-0.39c5.46-1.08,10.89-0.97,16.37-0.07c2.85,0.47,5.79,0.41,8.7,0.46c43.63,0.75,87.27,0.46,130.9-0.05
			c0.97-0.01,1.95,0.07,2.91-0.06c14.79-1.96,29.68-1.05,44.53-1.56c6.78-0.23,13.58-0.11,20.36-0.31
			c3.86-0.11,7.72-0.57,11.58-0.83c2.58-0.17,5.16-0.3,7.74-0.4c1.94-0.07,3.88-0.07,5.82-0.09c25.33-0.34,49.26-6.54,71.54-18.37
			c26.08-13.85,46.18-33.87,59.81-60.29c5.96-11.55,10.66-23.52,13.74-36.12c1.38-5.63,2.34-11.35,3.26-17.09
			c1.92-11.88,1.71-23.82,1.75-35.76c0.09-25.22,0.24-50.43,0.18-75.65c-0.01-5.87,0.99-11.57,1.76-17.32
			c0.35-2.62,1.4-5.03,2.85-7.15c2.47-3.59,5.74-6.12,10.38-6.25c5.17-0.15,10.37-0.43,15.41,1c3.47,0.99,7.01,1.23,10.55,1.25
			c9.37,0.04,18.74-0.05,28.11-0.17c2.25-0.03,4.56-0.11,6.75-0.59c11.21-2.44,22.55-2.09,33.78-1c9.33,0.9,18.28,3.95,26.84,7.87
			c13.05,5.97,24.6,14.03,34.89,24.12c12.89,12.63,22.77,27.22,30.17,43.57c3.33,7.36,5.91,15.04,7.74,22.91
			c4.46,19.17,9.68,38.15,14.58,57.21c2.96,11.54,5.6,23.18,7.35,35.02c0.95,6.42,1.63,12.81,1.71,19.26
			c0.13,11.31,0.08,22.63,0.13,33.94c0.02,4.52-0.06,9.03,0.78,13.53c0.41,2.2,0.28,4.51,0.29,6.77c0.04,7.11,0.03,14.22,0.03,21.34
			c0,4.2-0.25,8.36-0.73,12.56c-0.62,5.44-0.41,10.97-0.66,16.46c-1.14,24.64-5.21,48.74-13.71,71.98
			c-1.44,3.94-2.78,7.95-4.63,11.7c-6.43,13.07-11.02,26.89-16.54,40.33c-9.27,22.56-23.03,41.81-41.62,57.56
			c-9.47,8.02-20.36,13.67-31.96,17.92c-13.45,4.93-27.35,7.49-41.7,7.46c-3.88-0.01-7.77-0.24-11.63-0.04
			c-4.92,0.25-9.58-1.59-14.41-1.6c-9.39-0.02-18.6-2.13-28-2.1c-9.37,0.03-18.74-0.32-28.12-0.27
			c-19.72,0.09-39.43,0.32-59.15,0.51c-1.62,0.01-3.26-0.1-4.84,0.14c-12.52,1.92-25.15,1.15-37.73,1.69
			c-5.16,0.22-10.33,0.04-15.45,1.08c-2.19,0.45-4.51,0.3-6.77,0.34c-27.15,0.45-54.3,0.76-81.44,0.11
			c-3.87-0.09-7.74-0.09-11.57-0.91c-2.19-0.47-4.49-0.47-6.75-0.58c-6.77-0.33-13.5-0.74-20.25-1.7
			c-9.6-1.38-19.36-0.95-29.05-0.55c-7.41,0.31-12.55,4.76-14.99,11.72c-1.78,5.06-1.78,10.21-1.08,15.32
			c0.53,3.89,2.48,7.32,5.84,9.71c1.61,1.15,3.32,2.04,5.32,2.15c3.23,0.16,6.46,0.33,9.69,0.33c48.81,0.02,97.61,0.02,146.42-0.01
			c17.78-0.01,35.55-0.07,53.33-0.24c4.9-0.05,9.63,0.7,14.35,1.85c8.56,2.08,14.78,9.75,14.91,18.11
			c0.06,3.88,0.11,7.76,0.09,11.63c-0.03,7.43-0.17,14.87-0.14,22.3c0.02,5.49-0.02,10.97,1.24,16.4c0.51,2.17,0.34,4.5,0.51,6.76
			c0.18,2.25,0.16,4.56,0.65,6.75c2.39,10.88,1.84,21.87,1.22,32.83c-0.2,3.5-1.05,7.05-2.11,10.41c-2.33,7.4-5.22,14.55-9.37,21.2
			c-7.1,11.37-16.11,21.06-26.21,29.69c-13.03,11.14-26.97,21.07-41.79,29.76c-22.18,13.02-45.85,22.22-70.79,28.22
			c-10.97,2.64-22.07,4.86-33.28,6.09c-10.57,1.16-21.14,2.64-31.84,2.51c-15.51-0.19-31.03-0.04-46.54-0.2
			c-6.77-0.07-13.58,0.1-20.26-1.47c-0.93-0.22-1.93-0.22-2.9-0.19c-9.73,0.24-19.32-1.45-28.92-2.58
			c-11.83-1.4-23.62-3.46-35.28-5.92c-16.43-3.47-32.51-8.2-48.07-14.68c-17.69-7.36-34.25-16.63-49.75-27.89
			c-10.52-7.65-19.84-16.59-28.48-26.22c-11.87-13.23-19.94-28.6-23.83-45.96c-1.4-6.26-2.65-12.63-2.67-19.14
			c-0.14-41.06-0.3-82.11-0.46-123.17C1797.7,3217.74,1797.84,3217.74,1797.99,3217.74z"/>
		<path class="st15" d="M1915.88,2640.89c-21.03,0.09-50.77,0.23-80.51,0.36c-3.88,0.02-7.76-0.03-11.64-0.06
			c-2.94-0.02-5.73-0.69-8.52-1.64c-6.87-2.35-10.42-7.36-11.48-14.25c-0.44-2.85-0.34-5.81-0.32-8.71
			c0.19-30.71,0.31-61.43,0.71-92.14c0.1-7.73,0.73-15.51,1.86-23.15c0.75-5.05,2.46-10.06,4.38-14.82
			c6.17-15.33,16.03-27.9,29.06-38.07c10.04-7.84,21.15-13.65,33.07-17.95c18.22-6.59,36.62-12.65,55.59-16.69
			c10.71-2.28,21.44-4.54,32.37-5.74c7.37-0.81,14.67-2.2,22.03-3.03c4.81-0.54,9.67-0.57,14.52-0.79
			c3.87-0.17,7.73-0.21,11.58-0.96c2.51-0.49,5.14-0.47,7.72-0.48c11.96-0.05,23.92-0.09,35.88,0.02c3.54,0.03,7.07,0.54,10.6,0.85
			c0.96,0.08,1.92,0.29,2.89,0.33c10.65,0.38,21.29,0.57,31.88,2.08c5.09,0.72,10.32,0.42,15.38,1.74c1.23,0.32,2.57,0.27,3.86,0.33
			c8.72,0.44,17.29,2,25.88,3.45c0.96,0.16,1.91,0.32,2.88,0.4c11.91,1.01,23.6,3.34,35.32,5.67c9.53,1.9,18.81,4.51,27.98,7.66
			c14.78,5.08,28.58,12.03,40.93,21.66c17.65,13.76,31.43,30.48,39.75,51.56c3.7,9.38,6.56,18.97,8.24,28.8
			c1.35,7.91,2.6,15.91,2.45,24.06c-0.29,16.16,0.42,32.37-0.56,48.48c-1.57,25.53-0.75,51.05-1.01,76.57
			c-0.34,33.3-0.38,66.6-0.58,99.9c-0.03,5.49-0.15,10.95-0.97,16.43c-0.66,4.44-0.51,9.03-0.49,13.55
			c0.09,20.02-6.26,38.01-16.74,54.82c-5,8.02-10.93,15.31-17.56,21.87c-15.18,15.01-33.02,25.89-53.79,31.42
			c-7.47,1.99-15.07,3.46-22.81,4.24c-8.34,0.85-16.62,2.15-24.94,3.19c-2.24,0.28-4.51,0.32-6.77,0.46
			c-5.8,0.36-11.61,0.29-17.37,1.42c-2.82,0.55-5.8,0.38-8.7,0.39c-28.77,0.1-57.54,0.22-86.3,0.24c-10.67,0.01-21.33-0.2-32-0.36
			c-6.13-0.09-12.27,0.14-18.37-0.98c-2.2-0.4-4.51-0.23-6.77-0.24c-11.64-0.05-23.27-0.14-34.91-0.08
			c-7.74,0.04-15.5-0.27-23.21,1.09c-2.84,0.5-5.81,0.21-8.71,0.38c-23.78,1.41-46.58,6.83-68.08,17.17
			c-17.08,8.21-32.11,19.31-44.65,33.57c-11.82,13.44-21.25,28.45-28.21,44.96c-3.14,7.44-5.81,15.05-8.32,22.74
			c-3.44,10.53-5.25,21.28-5.46,32.32c-0.09,4.53-0.07,9.06-0.26,13.58c-0.17,3.86-0.61,7.72-0.88,11.58
			c-0.2,2.9-0.39,5.8-0.43,8.71c-0.23,13.9-0.37,27.8-0.65,41.7c-0.08,3.86-0.55,7.72-0.8,11.58c-0.17,2.58-0.35,5.16-0.41,7.74
			c-0.11,4.2-0.11,8.41-0.2,12.61c-0.03,1.61-0.02,3.25-0.3,4.83c-1.67,9.38-7.3,14.54-16.41,14.62c-3.56,0.03-7.11,0.05-10.67,0.11
			c-5.16,0.1-10.33-0.08-15.45,1.04c-1.87,0.41-3.86,0.33-5.8,0.34c-10.34,0.09-20.69,0.21-31.03,0.2
			c-9.73-0.01-19.31-1.41-28.71-3.77c-16.85-4.23-31.93-12.04-45.63-22.71c-12.7-9.89-22.42-22.24-30.63-35.93
			c-15.43-25.7-26.02-53.29-33.18-82.35c-3.02-12.25-5.23-24.65-6.84-37.09c-1.44-11.17-2.62-22.43-2.72-33.77
			c-0.2-22.31-0.23-44.62,0.47-66.92c0.06-1.94-0.09-3.94,0.34-5.8c1.3-5.73,1.13-11.57,1.47-17.36c0.23-3.87,0.09-7.76,1.2-11.55
			c0.27-0.92,0.38-1.92,0.36-2.88c-0.17-8.77,1.71-17.34,2.51-26.02c0.74-8.01,2.24-15.96,3.64-23.9
			c2.02-11.45,4.6-22.79,8.22-33.84c7.08-21.69,17.73-41.53,31.38-59.81c6.61-8.86,14.15-16.83,22.33-24.19
			c14.45-13,31.3-21.6,50.2-26.08c9.43-2.23,18.97-3.74,28.71-3.92c7.09-0.13,14.22,0.06,21.25-1.38c2.19-0.45,4.51-0.25,6.77-0.31
			c7.76-0.18,15.51-0.34,23.27-0.53c2.26-0.05,4.58,0.12,6.77-0.3c6.4-1.24,12.87-1.05,19.32-1.17c10.67-0.19,21.33-0.29,32-0.49
			c6.78-0.12,13.56,0.13,20.31-1.02c2.52-0.43,5.16-0.21,7.74-0.21c24.24,0.01,48.49,0.03,72.73,0.06c1.62,0,3.27-0.15,4.84,0.13
			c6.74,1.19,13.53,0.82,20.31,0.83c21.01,0.03,42.02,0.02,63.03,0c4.84,0,9.66-0.32,14.5-0.65c8.68-0.59,17.44-1.01,26.11,0.35
			c7.49,1.17,14.84,0.07,22.11-1.43c6.2-1.28,10.04-6.14,10.41-12.37c0.06-0.97-0.02-1.94,0.07-2.91c0.55-6.28-1.9-11.29-6.32-15.59
			c-2.64-2.57-5.8-4.2-9.22-5.13c-4.97-1.35-9.97-2.73-15.23-2.61c-3.88,0.09-7.76-0.08-11.64-0.08
			C1982.77,2640.88,1953.68,2640.89,1915.88,2640.89z"/>
		<path d="M2050.09,2254.4c-12.65-0.95-25.27-0.83-37.78-2.72c-5.09-0.77-10.21-1.66-15.42-1.22c-2.71,0.23-5.23-0.56-7.08-2.49
			c-2.29-2.39-5.03-3.96-7.89-5.5c-10.02-5.4-17.37-13.3-21.77-23.86c-0.5-1.19-0.83-2.48-1.51-3.56c-0.66-1.05-1.53-2.11-2.56-2.76
			c-2.19-1.36-4.52-2.5-6.84-3.64c-8.12-3.98-16.27-7.9-24.39-11.87c-17.98-8.81-36.07-17.39-53.9-26.51
			c-39.6-20.25-75.86-45.53-109.68-74.32c-18.51-15.76-35.21-33.28-49.48-53.05c-18.01-24.96-30.63-52.31-36.98-82.5
			c-4.35-20.68-6.04-41.59-4.42-62.65c2.8-36.26,14.99-69.22,35.61-99.14c13.85-20.09,30.46-37.65,48.76-53.68
			c19.01-16.65,39.52-31.25,60.88-44.69c6.02-3.78,12.05-7.54,18.06-11.34c7.1-4.5,13.97-9.33,20.45-14.7
			c12.09-10.02,21.89-21.92,29.17-35.85c1.49-2.86,2.86-5.79,4.3-8.68c8.47-17.02,20.01-31.61,34.56-43.83
			c18.61-15.64,39.86-26.2,63.13-32.86c16.56-4.74,33.52-7.07,50.7-7.27c21.47-0.26,42.53,2.8,62.92,9.7
			c15.64,5.29,30.63,12.1,44.83,20.57c13.41,8,25.59,17.55,36.06,29.14c10.05,11.12,17.95,23.68,23.44,37.65
			c2.13,5.4,4.26,10.88,5.53,16.51c2.41,10.64,8.88,16.85,19.13,19.67c3.11,0.85,6.17,1.9,9.23,2.92c19.7,6.55,38.44,15.21,56,26.29
			c42.27,26.66,76.32,61.52,102.46,104.05c11.92,19.39,20.49,40.25,25.94,62.38c5.32,21.58,6.61,43.48,4.15,65.46
			c-3.1,27.7-12.49,53.38-27.22,77.03c-11.87,19.05-26.34,35.88-43.15,50.8c-10.9,9.68-22.31,18.64-34.48,26.64
			c-3.01,1.98-5.5,4.4-7.73,7.24c-8.85,11.28-19.44,20.71-31.12,28.95c-9.26,6.53-18.98,12.29-29.04,17.48
			c-7.75,4-15.6,7.79-23.4,11.69c-12.41,6.22-24.84,12.42-37.22,18.7c-7.77,3.94-15.54,7.9-23.19,12.07
			c-7.39,4.04-14.33,8.72-20.4,14.65c-5.62,5.49-10.06,11.77-13.35,18.88c-0.95,2.05-1.73,4.18-2.73,6.21
			c-1.29,2.63-3.03,4.95-5.15,6.99c-2.65,2.57-5.73,4.17-9.45,4.4c-1.61,0.1-3.25-0.1-4.84,0.13c-1.23,0.18-2.51,0.61-3.55,1.27
			c-2.18,1.38-4.25,2.94-6.3,4.51c-2.11,1.62-4.45,2.63-7.07,2.94c-7.06,0.84-14.1,1.82-21.18,2.37
			C2066.81,2253.68,2058.41,2253.96,2050.09,2254.4z"/>
		<path class="st16" d="M2233.48,1308.74c0.32-10.35,0.39-22.64,1.16-34.9c0.97-15.48,2.65-30.89,4.87-46.26
			c3.33-23.06,7.97-45.83,14.06-68.3c21.13-77.84,56.64-148.31,108.62-210.15c48.56-57.76,106.89-102.93,175.42-134.75
			c35.34-16.41,72.24-28,110.48-35.25c17.46-3.31,35.08-5.5,52.83-6.83c15.5-1.16,30.99-1.47,46.5-1.21
			c14.23,0.24,28.37,1.59,42.52,3.09c36.17,3.83,71.25,12.39,105.58,24.12c16.5,5.64,32.52,12.6,48.25,20.16
			c47.6,22.84,90.41,52.59,128.51,89.13c35.23,33.79,64.77,72.03,89.18,114.27c20.13,34.83,35.84,71.6,48.26,109.81
			c8.9,27.38,15.93,55.25,20.84,83.62c2.14,12.41,3.67,24.92,4.94,37.47c2.38,23.57,2.13,47.17,1,70.73
			c-2.61,54.47-11.65,107.85-28.31,159.87c-12.46,38.92-28.69,76.15-49.24,111.48c-26.19,45.02-58.14,85.45-96.56,120.68
			c-58.48,53.62-126.02,90.84-202.55,111.74c-16.21,4.43-32.61,8.02-49.24,10.48c-10.54,1.56-21.02,3.47-31.64,4.59
			c-19.63,2.07-39.28,3.27-59.01,3.17c-19.42-0.1-38.75-1.64-57.98-4.16c-8.95-1.18-17.79-3.21-26.69-4.83
			c-39.42-7.15-76.58-20.8-112.16-38.98c-36.48-18.63-69.68-42.06-100.23-69.26c-34.18-30.43-64.45-64.43-91.1-101.59
			c-29.39-40.98-51.95-85.5-68.33-133.2c-10.2-29.72-17.71-60.1-22.76-91.08c-2.18-13.39-3.66-26.88-4.98-40.4
			C2234.05,1344.92,2233.96,1327.8,2233.48,1308.74z"/>
		<path class="st16" d="M1390.93,854.67c16.59,0.68,34.01,1.32,51.4,3.04c38.1,3.76,75.26,11.75,111.57,23.8
			c22.1,7.33,43.57,16.23,64.42,26.61c57.39,28.58,107.43,66.79,149.8,114.92c49.06,55.72,83.46,119.45,103.45,190.94
			c6.36,22.74,10.9,45.84,14.04,69.26c4.57,34.11,5.26,68.33,2.95,102.57c-2.22,32.97-8.2,65.37-17.44,97.12
			c-11.79,40.53-28.52,78.94-50.32,115.1c-26.41,43.8-58.79,82.63-97.24,116.33c-58.07,50.89-124.35,86.55-198.93,106.68
			c-22.8,6.15-45.91,10.62-69.38,13.37c-27.02,3.17-54.13,4.18-81.28,3.03c-95.26-4.02-182.68-32.35-261.75-85.72
			c-53.12-35.85-97.6-80.48-133.32-133.76c-34.58-51.57-58.55-107.67-71.68-168.39c-3.42-15.8-6.01-31.72-7.89-47.78
			c-2.41-20.58-3.5-41.2-3.34-61.91c0.14-16.83,1.44-33.56,3.32-50.27c5.61-49.88,19.34-97.51,40.06-143.11
			c17.47-38.43,39.71-73.98,66.36-106.74c39.18-48.14,85.58-87.85,139.26-119.01c45.92-26.66,94.93-45.3,146.89-56.08
			c15.18-3.15,30.5-5.45,45.96-7.03C1355.23,855.86,1372.64,855.02,1390.93,854.67z"/>
		<path class="st17" d="M2189.86,3405.45c-7.46,0.6-14.25-1.12-20.74-4.34c-6.85-3.4-12.17-8.53-16.15-14.91
			c-4.11-6.6-6.89-13.75-8.26-21.53c-0.96-5.44-1.62-10.82-1.5-16.32c0.26-11.79,4.5-21.96,12.41-30.64
			c1.09-1.19,2.26-2.3,3.41-3.44c9.4-9.24,20.89-12.57,33.69-11.13c5.06,0.57,10.18,1.45,15.07,3.32
			c13.07,4.99,22.43,13.69,27.45,26.84c3.37,8.83,5.08,18.01,4.58,27.46c-0.38,7.09-1.78,13.98-4.96,20.51
			c-4.79,9.84-12.51,16.32-22.5,20.13C2205.1,3404.15,2197.56,3405.92,2189.86,3405.45z"/>
		<path class="st17" d="M1904.75,2481.44c4.2,0.13,8.4,0.26,12.6,0.39c7.27,0.23,13.97,2.48,20.24,5.99
			c4.88,2.74,8.78,6.6,11.62,11.42c3.14,5.34,5.28,11.06,5.91,17.29c0.23,2.25,0.64,4.47,0.89,6.72c0.22,1.92,0.54,3.86,0.48,5.78
			c-0.52,16.5-5.64,31.13-18.28,42.3c-8.22,7.26-17.87,11.33-29.06,11.55c-10.02,0.2-19.19-2.41-27.6-7.63
			c-7.88-4.89-13.82-11.7-17.61-20.14c-5.14-11.46-6.56-23.53-5.05-35.98c0.35-2.88,0.81-5.77,0.91-8.66
			c0.14-3.96,1.23-7.68,2.63-11.28c2.98-7.67,8.35-12.9,16.4-15.24c4.68-1.36,9.4-2.31,14.3-2.26c3.88,0.04,7.76,0.01,11.63,0.01
			C1904.74,2481.61,1904.75,2481.52,1904.75,2481.44z"/>
		<path class="st18" d="M1703.96,1925.36c-1.93-21.39,2.18-41.21,9.27-60.51c5.93-16.14,14.01-31.22,23.56-45.51
			c19.95-29.86,44.36-55.47,73.38-76.66c9.94-7.26,20.45-13.6,31.43-19.13c7.52-3.79,15.48-6.43,23.7-8.31
			c8.54-1.96,15.22,0.99,20.63,7.47c1.66,1.98,3.08,4.15,4.71,6.16c8.15,10.07,18.28,17.28,30.8,20.88
			c9.12,2.62,18.43,3.31,27.84,1.99c4.15-0.58,8.27-1.45,12.39-2.26c16.82-3.29,33.73-5.81,50.84-7.08
			c12.27-0.91,24.53-1.43,36.81-1.08c17.45,0.5,34.85,1.82,52.09,4.72c10.51,1.77,21,3.64,31.51,5.44
			c9.41,1.61,18.74,0.81,27.86-1.6c13.96-3.68,24.99-11.78,33.57-23.33c1.92-2.59,3.78-5.24,5.9-7.66
			c4.81-5.5,10.99-7.75,18.22-7.04c1.92,0.19,3.86,0.46,5.72,0.95c11.26,3,22.19,6.83,32.52,12.36
			c46.19,24.76,81.87,60.45,109.14,104.88c6.6,10.76,11.98,22.14,16.59,33.9c4.98,12.7,8.58,25.78,10.22,39.29
			c1.52,12.55,1.31,25.11-0.76,37.68c-3.29,20-9.74,38.82-19.86,56.35c-16.62,28.81-39.86,50.71-69.71,65.32
			c-26.41,12.92-54.41,18.26-83.76,15.51c-12.24-1.15-24.23-3.72-35.86-7.94c-11.56-4.19-22.83-8.98-33.84-14.44
			c-10.13-5.02-20.29-9.96-30.5-14.83c-9.34-4.45-18.87-8.42-28.7-11.67c-16.46-5.45-33.32-7.89-50.61-6.56
			c-13.58,1.05-26.81,3.97-39.72,8.4c-11.02,3.78-21.75,8.25-32.18,13.4c-9.85,4.86-19.59,9.94-29.35,14.98
			c-14.09,7.27-28.59,13.54-43.85,17.98c-14.09,4.1-28.43,5.91-43.09,5.33c-16.08-0.64-31.15-4.87-45.55-11.99
			c-17-8.4-31.76-19.8-45.34-32.87c-12.14-11.68-23.08-24.42-33.6-37.56c-10.57-13.19-16.66-28.26-19.73-44.75
			c-1.37-7.33-2.1-14.71-2.36-22.15C1704.2,1930.51,1704.06,1927.6,1703.96,1925.36z"/>
		<path class="st19" d="M2044.2,2061.63c12.82,0.41,25.33,1.69,37.77,3.89c17.59,3.11,34.26,9.18,50.84,15.55
			c5.33,2.05,9.19,5.87,12.68,10.15c1.08,1.32,0.89,2.98,0.6,4.63c-3.62,21.08-9.24,41.61-16.97,61.54
			c-6.79,17.5-15.15,34.25-24.94,50.27c-1.18,1.93-2.33,3.89-3.68,5.7c-3.05,4.06-7.09,6.51-12.2,7.08
			c-6.21,0.7-12.23,0.03-18.09-2.21c-4.66-1.78-7.29-5.18-8.26-9.94c-0.32-1.57-0.34-3.21-0.46-4.82c-0.17-2.26-0.01-4.58-0.5-6.76
			c-1.22-5.48-0.99-10.87-0.02-16.35c0.67-3.81,0.94-7.7,1.11-11.57c0.11-2.56,0.07-5.22-0.48-7.71
			c-1.79-8.16-7.14-14.5-16.66-14.77c-3.24-0.09-6.43,0.06-9.6,0.95c-7.48,2.1-12.75,9.65-11.84,17.84c0.36,3.2,1.02,6.4,1.93,9.49
			c1.59,5.36,2.08,10.71,1.39,16.28c-0.4,3.18-0.13,6.44-0.09,9.67c0.03,2.91,0.26,5.82,0.19,8.72c-0.12,4.75-2.66,7.76-7.05,9.39
			c-6.21,2.3-12.04,1.43-17.63-1.92c-3.39-2.03-6.05-4.81-8.35-7.98c-2.48-3.43-4.34-7.19-5.82-11.13
			c-3.29-8.76-6.5-17.56-9.73-26.35c-3.24-8.78-6.29-17.64-9.77-26.33c-2.88-7.19-6.18-14.21-9.46-21.23
			c-2.05-4.4-4.17-8.77-5.33-13.49c-2.43-9.88-0.43-18.59,7.21-25.65c1.66-1.53,3.41-2.98,5.24-4.29c3.97-2.81,8.22-5.1,12.77-6.85
			c8.45-3.25,17.06-5.87,25.95-7.69C2017.98,2063.1,2031.13,2061.89,2044.2,2061.63z"/>
		<path class="st20" d="M3203.81,1308.39c-0.29,24.26-1.84,48.42-5.06,72.49c-4.6,34.38-12.49,67.94-23.66,100.76
			c-13.59,39.94-31.75,77.69-54.67,113.12c-26.16,40.42-57.23,76.59-93.87,107.89c-54.22,46.32-115.83,78.43-185.1,95.58
			c-16.31,4.04-32.84,6.93-49.51,9.15c-27.34,3.64-54.78,4.42-82.24,2.87c-34.31-1.93-68-7.85-100.95-17.67
			c-45.85-13.67-88.55-33.99-127.93-61.21c-48.42-33.46-88.9-74.74-121.88-123.49c-29.74-43.96-51.99-91.44-67.41-142.15
			c-6.68-21.97-11.5-44.37-14.91-67.09c-2.73-18.23-4.57-36.53-6-54.91c-1.7-21.95-1.94-43.92-2.13-65.9
			c-0.15-18.77,1.6-37.43,4.13-56.03c5.82-42.84,17.33-84.07,34.42-123.75c24.2-56.14,58.1-105.74,100.82-149.39
			c11.31-11.56,23.04-22.7,35.37-33.14c40.73-34.49,85.29-62.75,135.28-81.99c27.82-10.7,56.42-18.61,85.82-23.44
			c26.2-4.3,52.61-6.44,79.17-5.75c19.07,0.49,38.04,2.1,56.94,4.94c27.88,4.2,55.1,10.96,81.64,20.37
			c49.79,17.66,95.11,43.33,136.07,76.71c39.67,32.33,73.13,70.2,100.97,113.09c32.68,50.33,55.72,104.78,69.7,163.12
			c4.75,19.82,8.32,39.84,10.88,60.04C3201.98,1260.43,3204,1289.71,3203.81,1308.39z"/>
		<path class="st20" d="M1394.34,1804.75c-76.25-0.44-148.55-17.24-216.35-52.49c-16.92-8.8-33.11-18.8-48.84-29.64
			c-41.66-28.72-77.35-63.52-107.32-104.21c-37.46-50.87-63.28-107.15-77.74-168.66c-4.44-18.9-7.74-37.96-9.82-57.27
			c-2.08-19.31-3.27-38.64-3.08-58.06c0.15-15.21,1.31-30.34,3-45.45c5.59-49.97,20-97.34,42.15-142.35
			c16.77-34.08,37.69-65.51,62.51-94.29c51.43-59.65,113.9-103.68,187.24-132.39c28.68-11.23,58.26-19.11,88.52-24.5
			c35.81-6.38,71.95-7.91,108.19-5.73c36.89,2.22,73.09,8.75,108.43,19.69c72.32,22.39,135.53,60.08,189.5,113.19
			c33.42,32.89,61,70.15,83.01,111.56c20.76,39.07,35.3,80.36,44.05,123.68c3.14,15.51,5.26,31.2,6.78,46.99
			c2.27,23.56,2.41,47.14,1.19,70.72c-0.97,18.72-3.47,37.3-6.94,55.75c-6.47,34.45-16.81,67.66-31.15,99.61
			c-33.71,75.1-84.09,136.7-150.51,185.17c-48.05,35.06-101.02,59.77-158.65,74.44c-19.74,5.02-39.73,8.7-60,10.95
			C1430.5,1803.45,1412.47,1804.79,1394.34,1804.75z"/>
		<path d="M2507.6,1322.53c1.18-54.94,21.55-101.12,63.4-137.19c22.49-19.39,48.57-31.51,77.92-36.76
			c15.11-2.7,30.19-3.36,45.35-1.34c24.01,3.21,46.44,11,66.92,24.1c30.28,19.38,52.34,45.77,66.79,78.61
			c7.34,16.68,11.86,34.1,13.94,52.22c4.46,38.72-2.41,75.35-20.49,109.76c-15.07,28.68-36.45,51.68-64.45,68.17
			c-28.95,17.04-60.31,24.45-93.83,21.79c-13.87-1.1-27.54-3.66-40.53-8.98c-38.93-12.51-82.19-47.38-103.07-103.88
			C2511.63,1367.61,2507.63,1345.45,2507.6,1322.53z"/>
		<path d="M1506.92,1502.64c-14.33,0.2-28.36-1.66-42.14-5.53c-25.98-7.31-48.92-20.06-68.49-38.63
			c-29.58-28.05-47.49-62.38-54.53-102.49c-3.21-18.28-3.68-36.63-1.42-55.02c7.08-57.45,39.54-105.11,83.99-131.83
			c16.76-10.07,34.73-16.95,54.03-20.42c8.61-1.55,17.21-2.9,25.95-2.9c32.13-0.02,62.03,8.27,89.02,25.66
			c42.61,27.45,68.76,66.38,78.73,116.1c3.52,17.54,4.02,35.19,2.16,53.03c-2.37,22.73-8.18,44.42-18.05,64.98
			c-11.78,24.55-28.15,45.55-49.66,62.36C1577.27,1490.8,1544.01,1502.27,1506.92,1502.64z"/>
		<path class="st21" d="M2719.31,1400.14c-2.3-0.33-5.59-0.42-8.64-1.31c-5.43-1.58-9.63-5.06-12.8-9.77
			c-2.19-3.24-3.74-6.77-4.69-10.55c-1.73-6.9-3.14-13.78-1.69-21c1.28-6.35,4.44-11.34,9.61-15.1c5.08-3.7,10.91-5.65,17.04-6.3
			c2.79-0.3,5.75,0.5,8.56,1.14c16.69,3.81,23.32,16.16,23.9,27.86c0.16,3.21,0.14,6.46-0.16,9.65
			c-1.05,11.3-8.98,22.61-24.44,24.83C2724.1,1399.87,2722.15,1399.92,2719.31,1400.14z"/>
		<path class="st22" d="M1580.89,1401.8c-6.05,0.09-11.71-1.08-17.17-3.13c-19.31-7.27-23.69-25.17-20.69-38.87
			c0.41-1.88,0.9-3.77,1.63-5.54c3.01-7.31,8.47-12.19,15.93-14.4c11.34-3.35,22.33-2,32.62,3.88c4.54,2.59,8.24,6.23,10.79,10.82
			c1.55,2.79,2.77,5.79,3.97,8.76c3.54,8.74,2.07,17.08-2.42,25.02c-4.81,8.49-12.01,13.22-21.93,13.45
			C1582.65,1401.82,1581.68,1401.8,1580.89,1401.8z"/>
	</g>
</g>
</svg>
